<svg xmlns="http://www.w3.org/2000/svg" viewBox="0 0 80 80">
  <defs>
    <linearGradient id="g" x1="0%" y1="100%" x2="100%" y2="0%">
      <stop offset="0%" stop-color="#c2410c"/>
      <stop offset="50%" stop-color="#ea580c"/>
      <stop offset="100%" stop-color="#fbbf24"/>
    </linearGradient>
  </defs>
  <path d="M40 55 C20 45,5 35,8 20 C15 28,25 32,35 38 C30 28,28 18,35 8 C38 18,38 30,40 40" fill="url(#g)" opacity="0.9"/>
  <path d="M40 55 C60 45,75 35,72 20 C65 28,55 32,45 38 C50 28,52 18,45 8 C42 18,42 30,40 40" fill="url(#g)" opacity="0.9"/>
  <path d="M40 70 C34 60,32 50,38 42 C39 48,41 48,42 42 C48 50,46 60,40 70Z" fill="#fbbf24"/>
  <circle cx="40" cy="36" r="5" fill="#fbbf24"/>
  <path d="M38 32 L40 26 L42 32" fill="#ea580c"/>
</svg>
